<svg xmlns="http://www.w3.org/2000/svg" width="1920" height="1080"><path d="M575,1352L-58,1446L1019,1423Z" fill="#728479" stroke="#728479" stroke-width="1.51"/><path d="M748,-365L1017,-347L1328,-379Z" fill="#9a7b9c" stroke="#9a7b9c" stroke-width="1.51"/><path d="M1328,1385L1019,1423L1618,1418Z" fill="#6a9b6e" stroke="#6a9b6e" stroke-width="1.51"/><path d="M1328,-379L1515,-369L1725,-372Z" fill="#776e75" stroke="#776e75" stroke-width="1.51"/><path d="M1328,-379L1725,-372L2059,-368Z" fill="#626161" stroke="#626161" stroke-width="1.51"/><path d="M2143,-113L2028,64L2176,210Z" fill="#687771" stroke="#687771" stroke-width="1.51"/><path d="M1925,1273L1618,1418L2226,1335Z" fill="#25783a" stroke="#25783a" stroke-width="1.51"/><path d="M2222,938L2159,1131L2226,1335Z" fill="#2d7a3d" stroke="#2d7a3d" stroke-width="1.51"/><path d="M2143,-113L2176,210L2248,295Z" fill="#6b7a73" stroke="#6b7a73" stroke-width="1.51"/><path d="M2163,-230L2143,-113L2248,295Z" fill="#5d6666" stroke="#5d6666" stroke-width="1.51"/><path d="M2135,535L1997,615L2278,770Z" fill="#7fa982" stroke="#7fa982" stroke-width="1.51"/><path d="M2069,995L2222,938L2278,770Z" fill="#5c9760" stroke="#5c9760" stroke-width="1.51"/><path d="M1997,615L2069,995L2278,770Z" fill="#70a573" stroke="#70a573" stroke-width="1.51"/><path d="M2248,295L2135,535L2278,770Z" fill="#82a185" stroke="#82a185" stroke-width="1.51"/><path d="M2222,938L2226,1335L2278,770Z" fill="#43854c" stroke="#43854c" stroke-width="1.51"/><path d="M1997,615L1910,688L2069,995Z" fill="#7db47f" stroke="#7db47f" stroke-width="1.51"/><path d="M2069,995L2159,1131L2222,938Z" fill="#468e50" stroke="#468e50" stroke-width="1.51"/><path d="M2176,210L2054,248L2248,295Z" fill="#778c7e" stroke="#778c7e" stroke-width="1.51"/><path d="M2054,248L2135,535L2248,295Z" fill="#819a84" stroke="#819a84" stroke-width="1.51"/><path d="M2040,1116L1925,1273L2159,1131Z" fill="#2e8541" stroke="#2e8541" stroke-width="1.51"/><path d="M2159,1131L1925,1273L2226,1335Z" fill="#1e7436" stroke="#1e7436" stroke-width="1.51"/><path d="M2069,995L2040,1116L2159,1131Z" fill="#3c8d4a" stroke="#3c8d4a" stroke-width="1.51"/><path d="M2028,64L2054,248L2176,210Z" fill="#768b7d" stroke="#768b7d" stroke-width="1.51"/><path d="M2054,248L1997,615L2135,535Z" fill="#8aad8e" stroke="#8aad8e" stroke-width="1.51"/><path d="M1889,-151L2143,-113L2163,-230Z" fill="#5b5a60" stroke="#5b5a60" stroke-width="1.51"/><path d="M2059,-368L1889,-151L2163,-230Z" fill="#535257" stroke="#535257" stroke-width="1.51"/><path d="M1808,574L1997,615L2054,248Z" fill="#94b997" stroke="#94b997" stroke-width="1.51"/><path d="M1889,-151L2028,64L2143,-113Z" fill="#646f6c" stroke="#646f6c" stroke-width="1.51"/><path d="M1731,322L1808,574L2054,248Z" fill="#9aba9b" stroke="#9aba9b" stroke-width="1.51"/><path d="M2028,64L1783,170L2054,248Z" fill="#7f9686" stroke="#7f9686" stroke-width="1.51"/><path d="M1910,688L1758,893L2069,995Z" fill="#78b87a" stroke="#78b87a" stroke-width="1.51"/><path d="M1848,1121L2040,1116L2069,995Z" fill="#459951" stroke="#459951" stroke-width="1.51"/><path d="M1758,893L1848,1121L2069,995Z" fill="#5fab66" stroke="#5fab66" stroke-width="1.51"/><path d="M1783,170L1731,322L2054,248Z" fill="#91ab94" stroke="#91ab94" stroke-width="1.51"/><path d="M1725,-372L1889,-151L2059,-368Z" fill="#595a5b" stroke="#595a5b" stroke-width="1.51"/><path d="M1848,1121L1925,1273L2040,1116Z" fill="#3a904a" stroke="#3a904a" stroke-width="1.51"/><path d="M1688,1298L1618,1418L1925,1273Z" fill="#3b8c49" stroke="#3b8c49" stroke-width="1.51"/><path d="M1889,-151L1783,170L2028,64Z" fill="#78897f" stroke="#78897f" stroke-width="1.51"/><path d="M1863,681L1758,893L1910,688Z" fill="#8ec58e" stroke="#8ec58e" stroke-width="1.51"/><path d="M1808,574L1910,688L1997,615Z" fill="#94c295" stroke="#94c295" stroke-width="1.51"/><path d="M1715,-125L1783,170L1889,-151Z" fill="#7d8a82" stroke="#7d8a82" stroke-width="1.51"/><path d="M1725,-372L1715,-125L1889,-151Z" fill="#716e71" stroke="#716e71" stroke-width="1.51"/><path d="M1808,574L1863,681L1910,688Z" fill="#97c697" stroke="#97c697" stroke-width="1.51"/><path d="M1848,1121L1688,1298L1925,1273Z" fill="#3d934c" stroke="#3d934c" stroke-width="1.51"/><path d="M1666,758L1758,893L1863,681Z" fill="#94cc92" stroke="#94cc92" stroke-width="1.51"/><path d="M1715,-125L1566,59L1783,170Z" fill="#909e94" stroke="#909e94" stroke-width="1.51"/><path d="M1758,893L1653,1108L1848,1121Z" fill="#67b56b" stroke="#67b56b" stroke-width="1.51"/><path d="M1653,1108L1688,1298L1848,1121Z" fill="#52a45b" stroke="#52a45b" stroke-width="1.51"/><path d="M1808,574L1666,758L1863,681Z" fill="#9ece9c" stroke="#9ece9c" stroke-width="1.51"/><path d="M1731,322L1575,520L1808,574Z" fill="#b0d1ae" stroke="#b0d1ae" stroke-width="1.51"/><path d="M1668,284L1731,322L1783,170Z" fill="#a1b9a1" stroke="#a1b9a1" stroke-width="1.51"/><path d="M1575,520L1666,758L1808,574Z" fill="#afd8ac" stroke="#afd8ac" stroke-width="1.51"/><path d="M1592,-142L1715,-125L1725,-372Z" fill="#7c767c" stroke="#7c767c" stroke-width="1.51"/><path d="M1566,59L1668,284L1783,170Z" fill="#a0b3a3" stroke="#a0b3a3" stroke-width="1.51"/><path d="M1592,-142L1566,59L1715,-125Z" fill="#8f9292" stroke="#8f9292" stroke-width="1.51"/><path d="M1515,-369L1592,-142L1725,-372Z" fill="#787177" stroke="#787177" stroke-width="1.51"/><path d="M1668,284L1575,520L1731,322Z" fill="#b3cdb1" stroke="#b3cdb1" stroke-width="1.51"/><path d="M1666,758L1476,860L1758,893Z" fill="#9dd399" stroke="#9dd399" stroke-width="1.51"/><path d="M1476,860L1653,1108L1758,893Z" fill="#8aca87" stroke="#8aca87" stroke-width="1.51"/><path d="M144,1380L-58,1446L575,1352Z" fill="#616c6a" stroke="#616c6a" stroke-width="1.51"/><path d="M1575,520L1446,816L1666,758Z" fill="#b8e0b3" stroke="#b8e0b3" stroke-width="1.51"/><path d="M1444,415L1575,520L1668,284Z" fill="#c1d7bd" stroke="#c1d7bd" stroke-width="1.51"/><path d="M1653,1108L1386,1255L1688,1298Z" fill="#62ab67" stroke="#62ab67" stroke-width="1.51"/><path d="M1386,1255L1618,1418L1688,1298Z" fill="#579c5e" stroke="#579c5e" stroke-width="1.51"/><path d="M1566,59L1444,415L1668,284Z" fill="#b6c6b5" stroke="#b6c6b5" stroke-width="1.51"/><path d="M1446,816L1476,860L1666,758Z" fill="#afdea9" stroke="#afdea9" stroke-width="1.51"/><path d="M1436,28L1444,415L1566,59Z" fill="#b7c1b9" stroke="#b7c1b9" stroke-width="1.51"/><path d="M1476,860L1386,1255L1653,1108Z" fill="#83c682" stroke="#83c682" stroke-width="1.51"/><path d="M1348,866L1386,1255L1476,860Z" fill="#9ed49a" stroke="#9ed49a" stroke-width="1.51"/><path d="M1515,-369L1389,-175L1592,-142Z" fill="#90818e" stroke="#90818e" stroke-width="1.51"/><path d="M1436,28L1566,59L1592,-142Z" fill="#9ea2a2" stroke="#9ea2a2" stroke-width="1.51"/><path d="M1386,1255L1328,1385L1618,1418Z" fill="#649f67" stroke="#649f67" stroke-width="1.51"/><path d="M1436,28L1229,253L1444,415Z" fill="#c8cdc7" stroke="#c8cdc7" stroke-width="1.51"/><path d="M1273,510L1446,816L1575,520Z" fill="#cfeaca" stroke="#cfeaca" stroke-width="1.51"/><path d="M1389,-175L1436,28L1592,-142Z" fill="#9f98a0" stroke="#9f98a0" stroke-width="1.51"/><path d="M1444,415L1273,510L1575,520Z" fill="#d3e6cf" stroke="#d3e6cf" stroke-width="1.51"/><path d="M129,-348L402,-313L748,-365Z" fill="#865891" stroke="#865891" stroke-width="1.51"/><path d="M1273,510L1228,563L1446,816Z" fill="#d9efd3" stroke="#d9efd3" stroke-width="1.51"/><path d="M1328,-379L1389,-175L1515,-369Z" fill="#8b7a89" stroke="#8b7a89" stroke-width="1.51"/><path d="M1348,866L1116,929L1386,1255Z" fill="#a5d7a1" stroke="#a5d7a1" stroke-width="1.51"/><path d="M1116,929L1145,1255L1386,1255Z" fill="#93c793" stroke="#93c793" stroke-width="1.51"/><path d="M1228,563L1348,866L1446,816Z" fill="#cbeac4" stroke="#cbeac4" stroke-width="1.51"/><path d="M1446,816L1348,866L1476,860Z" fill="#b6e2af" stroke="#b6e2af" stroke-width="1.51"/><path d="M1116,929L1053,1036L1145,1255Z" fill="#a7d3a4" stroke="#a7d3a4" stroke-width="1.51"/><path d="M1389,-175L1160,-79L1436,28Z" fill="#ada0af" stroke="#ada0af" stroke-width="1.51"/><path d="M1229,253L1273,510L1444,415Z" fill="#dae2d7" stroke="#dae2d7" stroke-width="1.51"/><path d="M1145,1255L1231,1298L1386,1255Z" fill="#7eb381" stroke="#7eb381" stroke-width="1.51"/><path d="M1088,59L1229,253L1436,28Z" fill="#c6c1ca" stroke="#c6c1ca" stroke-width="1.51"/><path d="M1160,-79L1088,59L1436,28Z" fill="#bdb2c1" stroke="#bdb2c1" stroke-width="1.51"/><path d="M1228,563L1069,699L1348,866Z" fill="#dbf1d5" stroke="#dbf1d5" stroke-width="1.51"/><path d="M1231,1298L1328,1385L1386,1255Z" fill="#73aa77" stroke="#73aa77" stroke-width="1.51"/><path d="M1328,-379L1141,-194L1389,-175Z" fill="#9e859d" stroke="#9e859d" stroke-width="1.51"/><path d="M1141,-194L1160,-79L1389,-175Z" fill="#af96b0" stroke="#af96b0" stroke-width="1.51"/><path d="M1069,699L1116,929L1348,866Z" fill="#ceebc7" stroke="#ceebc7" stroke-width="1.51"/><path d="M1017,-347L1141,-194L1328,-379Z" fill="#9d819d" stroke="#9d819d" stroke-width="1.51"/><path d="M1231,1298L1019,1423L1328,1385Z" fill="#79a57c" stroke="#79a57c" stroke-width="1.51"/><path d="M1229,253L1042,506L1273,510Z" fill="#e6e9e3" stroke="#e6e9e3" stroke-width="1.51"/><path d="M1042,506L1228,563L1273,510Z" fill="#eaf3e7" stroke="#eaf3e7" stroke-width="1.51"/><path d="M1069,699L1013,801L1116,929Z" fill="#d7edd2" stroke="#d7edd2" stroke-width="1.51"/><path d="M1042,506L1069,699L1228,563Z" fill="#ebf4e7" stroke="#ebf4e7" stroke-width="1.51"/><path d="M915,374L1042,506L1229,253Z" fill="#ebe6ea" stroke="#ebe6ea" stroke-width="1.51"/><path d="M1145,1255L1019,1423L1231,1298Z" fill="#80ad84" stroke="#80ad84" stroke-width="1.51"/><path d="M1053,1036L1061,1249L1145,1255Z" fill="#96c497" stroke="#96c497" stroke-width="1.51"/><path d="M1088,59L915,374L1229,253Z" fill="#dcd4df" stroke="#dcd4df" stroke-width="1.51"/><path d="M889,97L915,374L1088,59Z" fill="#ddcee3" stroke="#ddcee3" stroke-width="1.51"/><path d="M1061,1249L1019,1423L1145,1255Z" fill="#85b088" stroke="#85b088" stroke-width="1.51"/><path d="M1141,-194L904,-69L1160,-79Z" fill="#ba9ebe" stroke="#ba9ebe" stroke-width="1.51"/><path d="M904,-69L1088,59L1160,-79Z" fill="#c2aec9" stroke="#c2aec9" stroke-width="1.51"/><path d="M889,97L833,178L915,374Z" fill="#dfcee3" stroke="#dfcee3" stroke-width="1.51"/><path d="M1017,-347L904,-69L1141,-194Z" fill="#b48eb7" stroke="#b48eb7" stroke-width="1.51"/><path d="M1013,801L1053,1036L1116,929Z" fill="#c7e6c2" stroke="#c7e6c2" stroke-width="1.51"/><path d="M1013,801L797,945L1053,1036Z" fill="#cce7c8" stroke="#cce7c8" stroke-width="1.51"/><path d="M1053,1036L829,1206L1061,1249Z" fill="#9fc8a0" stroke="#9fc8a0" stroke-width="1.51"/><path d="M904,-69L889,97L1088,59Z" fill="#cdb8d5" stroke="#cdb8d5" stroke-width="1.51"/><path d="M749,483L738,822L1013,801Z" fill="#e6ece4" stroke="#e6ece4" stroke-width="1.51"/><path d="M829,1206L1019,1423L1061,1249Z" fill="#8db591" stroke="#8db591" stroke-width="1.51"/><path d="M1042,506L749,483L1069,699Z" fill="#f5f6f5" stroke="#f5f6f5" stroke-width="1.51"/><path d="M749,483L1013,801L1069,699Z" fill="#edf4ea" stroke="#edf4ea" stroke-width="1.51"/><path d="M797,945L829,1206L1053,1036Z" fill="#afd3ae" stroke="#afd3ae" stroke-width="1.51"/><path d="M748,-365L904,-69L1017,-347Z" fill="#ac84b0" stroke="#ac84b0" stroke-width="1.51"/><path d="M915,374L749,483L1042,506Z" fill="#f2ebf2" stroke="#f2ebf2" stroke-width="1.51"/><path d="M833,178L828,341L915,374Z" fill="#e6d7e9" stroke="#e6d7e9" stroke-width="1.51"/><path d="M829,1206L658,1257L1019,1423Z" fill="#8aad8e" stroke="#8aad8e" stroke-width="1.51"/><path d="M658,1257L575,1352L1019,1423Z" fill="#84a087" stroke="#84a087" stroke-width="1.51"/><path d="M738,822L797,945L1013,801Z" fill="#d3e5d0" stroke="#d3e5d0" stroke-width="1.51"/><path d="M402,-313L514,-295L748,-365Z" fill="#92649a" stroke="#92649a" stroke-width="1.51"/><path d="M688,-69L889,97L904,-69Z" fill="#c4a9cd" stroke="#c4a9cd" stroke-width="1.51"/><path d="M748,-365L688,-69L904,-69Z" fill="#b58abb" stroke="#b58abb" stroke-width="1.51"/><path d="M828,341L749,483L915,374Z" fill="#ede1ee" stroke="#ede1ee" stroke-width="1.51"/><path d="M647,133L833,178L889,97Z" fill="#d4beda" stroke="#d4beda" stroke-width="1.51"/><path d="M688,-69L647,133L889,97Z" fill="#c9aed1" stroke="#c9aed1" stroke-width="1.51"/><path d="M583,791L738,822L749,483Z" fill="#e3e2e0" stroke="#e3e2e0" stroke-width="1.51"/><path d="M537,1016L658,1257L797,945Z" fill="#a7c2a6" stroke="#a7c2a6" stroke-width="1.51"/><path d="M619,377L749,483L828,341Z" fill="#eadaeb" stroke="#eadaeb" stroke-width="1.51"/><path d="M647,133L619,377L828,341Z" fill="#e0cbe3" stroke="#e0cbe3" stroke-width="1.51"/><path d="M797,945L658,1257L829,1206Z" fill="#a0c0a0" stroke="#a0c0a0" stroke-width="1.51"/><path d="M647,133L828,341L833,178Z" fill="#dcc7e0" stroke="#dcc7e0" stroke-width="1.51"/><path d="M537,1016L512,1087L658,1257Z" fill="#99b49b" stroke="#99b49b" stroke-width="1.51"/><path d="M514,-295L688,-69L748,-365Z" fill="#a576ab" stroke="#a576ab" stroke-width="1.51"/><path d="M454,617L583,791L749,483Z" fill="#e1dbe2" stroke="#e1dbe2" stroke-width="1.51"/><path d="M738,822L537,1016L797,945Z" fill="#c5d5c0" stroke="#c5d5c0" stroke-width="1.51"/><path d="M514,-295L493,-168L688,-69Z" fill="#a878b1" stroke="#a878b1" stroke-width="1.51"/><path d="M583,791L537,1016L738,822Z" fill="#c8d4c5" stroke="#c8d4c5" stroke-width="1.51"/><path d="M619,377L454,617L749,483Z" fill="#e7d9ea" stroke="#e7d9ea" stroke-width="1.51"/><path d="M398,327L619,377L647,133Z" fill="#d6bddc" stroke="#d6bddc" stroke-width="1.51"/><path d="M493,-168L647,133L688,-69Z" fill="#b896c3" stroke="#b896c3" stroke-width="1.51"/><path d="M493,-168L249,62L647,133Z" fill="#b290c0" stroke="#b290c0" stroke-width="1.51"/><path d="M420,1194L575,1352L658,1257Z" fill="#829d88" stroke="#829d88" stroke-width="1.51"/><path d="M512,1087L420,1194L658,1257Z" fill="#8ea792" stroke="#8ea792" stroke-width="1.51"/><path d="M388,1264L144,1380L575,1352Z" fill="#708379" stroke="#708379" stroke-width="1.51"/><path d="M249,62L398,327L647,133Z" fill="#c3a6cf" stroke="#c3a6cf" stroke-width="1.51"/><path d="M289,-101L249,62L493,-168Z" fill="#a278b1" stroke="#a278b1" stroke-width="1.51"/><path d="M401,772L537,1016L583,791Z" fill="#c2cbc2" stroke="#c2cbc2" stroke-width="1.51"/><path d="M398,327L454,617L619,377Z" fill="#ddcae2" stroke="#ddcae2" stroke-width="1.51"/><path d="M420,1194L388,1264L575,1352Z" fill="#7c9484" stroke="#7c9484" stroke-width="1.51"/><path d="M454,617L401,772L583,791Z" fill="#d2cfd3" stroke="#d2cfd3" stroke-width="1.51"/><path d="M398,327L333,582L454,617Z" fill="#d9c7df" stroke="#d9c7df" stroke-width="1.51"/><path d="M401,772L298,973L537,1016Z" fill="#b4beb5" stroke="#b4beb5" stroke-width="1.51"/><path d="M298,973L512,1087L537,1016Z" fill="#a2b5a5" stroke="#a2b5a5" stroke-width="1.51"/><path d="M402,-313L493,-168L514,-295Z" fill="#9665a0" stroke="#9665a0" stroke-width="1.51"/><path d="M298,973L420,1194L512,1087Z" fill="#95ab99" stroke="#95ab99" stroke-width="1.51"/><path d="M402,-313L289,-101L493,-168Z" fill="#9b66a7" stroke="#9b66a7" stroke-width="1.51"/><path d="M333,582L401,772L454,617Z" fill="#d1c9d6" stroke="#d1c9d6" stroke-width="1.51"/><path d="M249,62L73,203L398,327Z" fill="#b696c4" stroke="#b696c4" stroke-width="1.51"/><path d="M158,398L333,582L398,327Z" fill="#ceb6d6" stroke="#ceb6d6" stroke-width="1.51"/><path d="M192,975L388,1264L420,1194Z" fill="#879b8c" stroke="#879b8c" stroke-width="1.51"/><path d="M298,973L192,975L420,1194Z" fill="#94a498" stroke="#94a498" stroke-width="1.51"/><path d="M192,975L43,1105L388,1264Z" fill="#829388" stroke="#829388" stroke-width="1.51"/><path d="M73,203L158,398L398,327Z" fill="#bfa0ca" stroke="#bfa0ca" stroke-width="1.51"/><path d="M192,975L298,973L401,772Z" fill="#aeb4b0" stroke="#aeb4b0" stroke-width="1.51"/><path d="M54,819L192,975L401,772Z" fill="#aeaeb2" stroke="#aeaeb2" stroke-width="1.51"/><path d="M333,582L100,626L401,772Z" fill="#c8bcce" stroke="#c8bcce" stroke-width="1.51"/><path d="M163,-157L289,-101L402,-313Z" fill="#935ca0" stroke="#935ca0" stroke-width="1.51"/><path d="M129,-348L163,-157L402,-313Z" fill="#824d8f" stroke="#824d8f" stroke-width="1.51"/><path d="M100,626L54,819L401,772Z" fill="#bbb1bf" stroke="#bbb1bf" stroke-width="1.51"/><path d="M43,1105L144,1380L388,1264Z" fill="#6e7e76" stroke="#6e7e76" stroke-width="1.51"/><path d="M158,398L100,626L333,582Z" fill="#cbb5d3" stroke="#cbb5d3" stroke-width="1.51"/><path d="M163,-157L249,62L289,-101Z" fill="#9a6daa" stroke="#9a6daa" stroke-width="1.51"/><path d="M163,-157L-68,137L249,62Z" fill="#996eaa" stroke="#996eaa" stroke-width="1.51"/><path d="M-68,137L73,203L249,62Z" fill="#a57bb4" stroke="#a57bb4" stroke-width="1.51"/><path d="M-122,-128L-68,137L163,-157Z" fill="#8b549a" stroke="#8b549a" stroke-width="1.51"/><path d="M54,819L34,1036L192,975Z" fill="#9a9a9c" stroke="#9a9a9c" stroke-width="1.51"/><path d="M34,1036L43,1105L192,975Z" fill="#888e8b" stroke="#888e8b" stroke-width="1.51"/><path d="M-109,418L-126,459L100,626Z" fill="#ba94bf" stroke="#ba94bf" stroke-width="1.51"/><path d="M-260,-252L-121,-215L129,-348Z" fill="#6c2679" stroke="#6c2679" stroke-width="1.51"/><path d="M43,1105L-58,1446L144,1380Z" fill="#5f6566" stroke="#5f6566" stroke-width="1.51"/><path d="M-109,418L100,626L158,398Z" fill="#bf9ec6" stroke="#bf9ec6" stroke-width="1.51"/><path d="M73,203L-109,418L158,398Z" fill="#b790bf" stroke="#b790bf" stroke-width="1.51"/><path d="M129,-348L-121,-215L163,-157Z" fill="#7b3c88" stroke="#7b3c88" stroke-width="1.51"/><path d="M-121,-215L-122,-128L163,-157Z" fill="#7f3c8c" stroke="#7f3c8c" stroke-width="1.51"/><path d="M-151,1053L-58,1446L43,1105Z" fill="#68696c" stroke="#68696c" stroke-width="1.51"/><path d="M-126,459L-221,617L100,626Z" fill="#b892bc" stroke="#b892bc" stroke-width="1.51"/><path d="M-221,617L-155,767L100,626Z" fill="#b090b2" stroke="#b090b2" stroke-width="1.51"/><path d="M-155,767L54,819L100,626Z" fill="#b09ab2" stroke="#b09ab2" stroke-width="1.51"/><path d="M-151,1053L34,1036L54,819Z" fill="#8f8990" stroke="#8f8990" stroke-width="1.51"/><path d="M-155,767L-151,1053L54,819Z" fill="#9a8999" stroke="#9a8999" stroke-width="1.51"/><path d="M-68,137L-109,418L73,203Z" fill="#aa7cb4" stroke="#aa7cb4" stroke-width="1.51"/><path d="M-122,-128L-174,98L-68,137Z" fill="#8c549a" stroke="#8c549a" stroke-width="1.51"/><path d="M-215,354L-109,418L-68,137Z" fill="#a776af" stroke="#a776af" stroke-width="1.51"/><path d="M-151,1053L-246,1067L-58,1446Z" fill="#636165" stroke="#636165" stroke-width="1.51"/><path d="M34,1036L-151,1053L43,1105Z" fill="#7e7e80" stroke="#7e7e80" stroke-width="1.51"/><path d="M-155,767L-302,786L-151,1053Z" fill="#8f7f8e" stroke="#8f7f8e" stroke-width="1.51"/><path d="M-174,98L-215,354L-68,137Z" fill="#9a68a5" stroke="#9a68a5" stroke-width="1.51"/><path d="M-246,1067L-295,1454L-58,1446Z" fill="#4d4b52" stroke="#4d4b52" stroke-width="1.51"/><path d="M-302,786L-362,871L-151,1053Z" fill="#847882" stroke="#847882" stroke-width="1.51"/><path d="M-362,871L-246,1067L-151,1053Z" fill="#766f75" stroke="#766f75" stroke-width="1.51"/><path d="M-184,-161L-174,98L-122,-128Z" fill="#7e418b" stroke="#7e418b" stroke-width="1.51"/><path d="M-184,-161L-122,-128L-121,-215Z" fill="#752e82" stroke="#752e82" stroke-width="1.51"/><path d="M-215,354L-126,459L-109,418Z" fill="#ad80b1" stroke="#ad80b1" stroke-width="1.51"/><path d="M-260,-252L-184,-161L-121,-215Z" fill="#6c2278" stroke="#6c2278" stroke-width="1.51"/><path d="M-215,354L-221,617L-126,459Z" fill="#ac83b0" stroke="#ac83b0" stroke-width="1.51"/><path d="M-184,-161L-260,-252L-174,98Z" fill="#743682" stroke="#743682" stroke-width="1.51"/><path d="M-221,617L-302,786L-155,767Z" fill="#9e839e" stroke="#9e839e" stroke-width="1.51"/><path d="M-260,-252L-215,354L-174,98Z" fill="#855192" stroke="#855192" stroke-width="1.51"/><path d="M-260,-252L-362,871L-215,354Z" fill="#996d9f" stroke="#996d9f" stroke-width="1.51"/><path d="M-302,786L-221,617L-215,354Z" fill="#a583a8" stroke="#a583a8" stroke-width="1.51"/><path d="M-362,871L-302,786L-215,354Z" fill="#9a7e9b" stroke="#9a7e9b" stroke-width="1.51"/><path d="M-362,871L-295,1454L-246,1067Z" fill="#5c5d5c" stroke="#5c5d5c" stroke-width="1.51"/></svg>